Life+ DVD Magazine Disc #4

Thought someone interested in the sports might be interested in this.
(Though it isn't a recent release...)
( http://en.wikipedia.org/wiki/Aggressive_inline_skating )

---MediaInfo---


General
Complete name                            : D:TorrentLifePlus.Issue4.DVDRip.DivX.MP3.ENG-gtxSeries.avi
Format                                   : AVI
Format/Info                              : Audio Video Interleave
File size                                : 674 MiB
Duration                                 : 44mn 30s
Overall bit rate                         : 2 116 Kbps

Video
ID                                       : 0
Format                                   : MPEG-4 Visual
Format profile                           : Advanced Simple@L1
Format settings, BVOP                    : 2
Format settings, QPel                    : No
Format settings, GMC                     : No warppoints
Format settings, Matrix                  : Default (H.263)
Codec ID                                 : DIVX
Codec ID/Info                            : Project Mayo
Codec ID/Hint                            : DivX 4
Duration                                 : 44mn 30s
Bit rate                                 : 1 913 Kbps
Width                                    : 640 pixels
Height                                   : 480 pixels
Display aspect ratio                     : 4:3
Frame rate                               : 29.970 fps
Color space                              : YUV
Chroma subsampling                       : 4:2:0
Bit depth                                : 8 bits
Scan type                                : Progressive
Compression mode                         : Lossy
Bits/(Pixel*Frame)                       : 0.208
Stream size                              : 609 MiB (90%)
Writing library                          : Lavc53.7.0

Audio
ID                                       : 1
Format                                   : MPEG Audio
Format version                           : Version 1
Format profile                           : Layer 3
Codec ID                                 : 55
Codec ID/Hint                            : MP3
Duration                                 : 44mn 30s
Bit rate mode                            : Constant
Bit rate                                 : 192 Kbps
Channel(s)                               : 2 channels
Sampling rate                            : 48.0 KHz
Compression mode                         : Lossy
Stream size                              : 61.1 MiB (9%)
Alignment                                : Aligned on interleaves
Interleave, duration                     : 24 ms (0.72 video frame)
Writing library                          : LAME3.99.5

